<svg xmlns="http://www.w3.org/2000/svg" viewBox="0 0 120 150" x="0px" y="0px"><path d="m97.82,81.26l-2.94,2.98,2.94,2.98c1.05.99.26,2.92-1.17,2.87-.42,0-.85-.16-1.17-.49l-2.94-2.98-2.94,2.98c-.65.66-1.7.66-2.34,0s-.65-1.72,0-2.38l2.94-2.98-2.94-2.98c-1.51-1.57.75-3.93,2.34-2.38,0,0,2.94,2.98,2.94,2.98l2.94-2.98c1.58-1.54,3.85.81,2.34,2.38Zm9.68,2.98c-.11,15.59-20,21.66-28.52,8.59,0,0-26.82,3.73-26.82,3.73-.35.05-.7-.04-1.02-.19,0,0-26.64-14.68-26.64-14.68-.53-.29-.87-.86-.87-1.48,0,0,0-30.5,0-30.5,0,0-9.14-5.15-9.14-5.15-2.23-1.18-2.69-4.5-.86-6.25,0,0,10.48-10.66,10.48-10.66.13-.12.27-.24.43-.32.17-.05.32-.12.49-.16,0,0,46.7-7.16,46.7-7.16.36-.05.73.01,1.05.19l27.03,15.27c.13.09.27.19.38.31.14.14.24.32.33.5,0,0,5.65,13.23,5.65,13.23,1.04,2.27-.51,5.18-3,5.48,0,0-2.51.38-2.51.38,0,0,0,15.83,0,15.83,4.18,2.89,6.81,7.75,6.81,13.03Zm-9.49-45.44c-14.63,2.1-29.26,4.19-43.89,6.29l4.1,12.74c.09.27.35.44.63.4l43.87-6.56c.25-.04.37-.2.42-.29.05-.09.12-.29.03-.52l-5.15-12.05Zm-71.91,8.45l15.74,8.88c.27.15.61.06.77-.21l7-11.6-24.02-13.4-9.6,9.76c-.28.32-.22.69.13.93,0,0,9.98,5.63,9.99,5.63Zm24.17,2.42s-4.83,8.01-4.83,8.01c0,0-1.12,1.85-1.12,1.85-.46.77-1.44,1.03-2.22.59-.61-.34-14.06-7.93-15.15-8.55,0,0,0,27.63,0,27.63,0,0,23.32,12.86,23.32,12.86v-42.39Zm1.97-7.71c13.89-1.99,27.78-3.98,41.67-5.97l-22.23-12.56-41.3,6.33c3.29,1.84,18.94,10.56,21.86,12.2Zm24.22,42.28c-.19-10.73,11.02-18.69,20.91-14.77,0,0,0-13.6,0-13.6l-38.04,5.69c-1.85.29-3.68-.84-4.27-2.68,0,0-1.48-4.59-1.48-4.59v38.68l23.83-3.31c-.62-1.73-.95-3.56-.95-5.41Zm27.72,0c.08-6.67-5.54-12.48-12.2-12.39-6.73,0-12.2,5.56-12.2,12.39-.14,6.62,5.61,12.52,12.2,12.39,6.73,0,12.2-5.56,12.2-12.39Z"/><text x="0" y="135" fill="#000000" font-size="5px" font-weight="bold" font-family="'Helvetica Neue', Helvetica, Arial-Unicode, Arial, Sans-serif">Created by Graphiverse</text><text x="0" y="140" fill="#000000" font-size="5px" font-weight="bold" font-family="'Helvetica Neue', Helvetica, Arial-Unicode, Arial, Sans-serif">from the Noun Project</text></svg>